<mxfile host="app.diagrams.net" modified="2024-07-20T05:12:04.246Z" agent="Mozilla/5.0 (Windows NT 10.0; Win64; x64) AppleWebKit/537.36 (KHTML, like Gecko) Chrome/126.0.0.0 Safari/537.36" etag="v8hlrgpStbsMyEAkT2b9" version="24.6.4" type="github">
  <diagram name="페이지-1" id="7DrIbnoJ-TWCNeJRg5fk">
    <mxGraphModel dx="1961" dy="654" grid="0" gridSize="10" guides="1" tooltips="1" connect="1" arrows="1" fold="1" page="1" pageScale="1" pageWidth="827" pageHeight="1169" math="0" shadow="0">
      <root>
        <mxCell id="0" />
        <mxCell id="1" parent="0" />
        <mxCell id="6v7LYIeFrf3vczTTwDZY-26" style="edgeStyle=orthogonalEdgeStyle;rounded=0;orthogonalLoop=1;jettySize=auto;html=1;exitX=0.5;exitY=0;exitDx=0;exitDy=0;entryX=0.5;entryY=1;entryDx=0;entryDy=0;endArrow=none;endFill=0;" parent="1" source="6v7LYIeFrf3vczTTwDZY-1" target="6v7LYIeFrf3vczTTwDZY-24" edge="1">
          <mxGeometry relative="1" as="geometry" />
        </mxCell>
        <mxCell id="6v7LYIeFrf3vczTTwDZY-1" value="멤버십" style="rounded=1;arcSize=10;whiteSpace=wrap;html=1;align=center;" parent="1" vertex="1">
          <mxGeometry x="160" y="150" width="100" height="40" as="geometry" />
        </mxCell>
        <mxCell id="6v7LYIeFrf3vczTTwDZY-2" value="모임" style="rounded=1;arcSize=10;whiteSpace=wrap;html=1;align=center;" parent="1" vertex="1">
          <mxGeometry x="630" y="150" width="100" height="40" as="geometry" />
        </mxCell>
        <mxCell id="6v7LYIeFrf3vczTTwDZY-13" style="edgeStyle=orthogonalEdgeStyle;rounded=0;orthogonalLoop=1;jettySize=auto;html=1;exitX=1;exitY=0.75;exitDx=0;exitDy=0;endArrow=none;endFill=0;" parent="1" source="6v7LYIeFrf3vczTTwDZY-3" target="6v7LYIeFrf3vczTTwDZY-9" edge="1">
          <mxGeometry relative="1" as="geometry">
            <Array as="points">
              <mxPoint x="490" y="350" />
            </Array>
          </mxGeometry>
        </mxCell>
        <mxCell id="6v7LYIeFrf3vczTTwDZY-17" style="edgeStyle=orthogonalEdgeStyle;rounded=0;orthogonalLoop=1;jettySize=auto;html=1;exitX=0;exitY=0;exitDx=0;exitDy=0;entryX=1;entryY=1;entryDx=0;entryDy=0;endArrow=none;endFill=0;" parent="1" source="6v7LYIeFrf3vczTTwDZY-3" target="6v7LYIeFrf3vczTTwDZY-7" edge="1">
          <mxGeometry relative="1" as="geometry">
            <Array as="points">
              <mxPoint x="390" y="290" />
              <mxPoint x="327" y="290" />
            </Array>
          </mxGeometry>
        </mxCell>
        <mxCell id="6v7LYIeFrf3vczTTwDZY-37" style="edgeStyle=orthogonalEdgeStyle;rounded=0;orthogonalLoop=1;jettySize=auto;html=1;exitX=0.75;exitY=0;exitDx=0;exitDy=0;entryX=0;entryY=1;entryDx=0;entryDy=0;endArrow=none;endFill=0;" parent="1" source="6v7LYIeFrf3vczTTwDZY-3" target="6v7LYIeFrf3vczTTwDZY-35" edge="1">
          <mxGeometry relative="1" as="geometry" />
        </mxCell>
        <mxCell id="6v7LYIeFrf3vczTTwDZY-38" style="edgeStyle=orthogonalEdgeStyle;rounded=0;orthogonalLoop=1;jettySize=auto;html=1;exitX=1;exitY=0.5;exitDx=0;exitDy=0;entryX=0.5;entryY=1;entryDx=0;entryDy=0;endArrow=none;endFill=0;" parent="1" source="6v7LYIeFrf3vczTTwDZY-3" target="6v7LYIeFrf3vczTTwDZY-6" edge="1">
          <mxGeometry relative="1" as="geometry" />
        </mxCell>
        <mxCell id="6v7LYIeFrf3vczTTwDZY-3" value="회원" style="rounded=1;arcSize=10;whiteSpace=wrap;html=1;align=center;" parent="1" vertex="1">
          <mxGeometry x="390" y="280" width="100" height="40" as="geometry" />
        </mxCell>
        <mxCell id="6v7LYIeFrf3vczTTwDZY-4" value="댓글" style="rounded=1;arcSize=10;whiteSpace=wrap;html=1;align=center;" parent="1" vertex="1">
          <mxGeometry x="650" y="460" width="100" height="40" as="geometry" />
        </mxCell>
        <mxCell id="6v7LYIeFrf3vczTTwDZY-15" style="edgeStyle=orthogonalEdgeStyle;rounded=0;orthogonalLoop=1;jettySize=auto;html=1;exitX=1;exitY=0.5;exitDx=0;exitDy=0;endArrow=none;endFill=0;" parent="1" source="6v7LYIeFrf3vczTTwDZY-5" target="6v7LYIeFrf3vczTTwDZY-12" edge="1">
          <mxGeometry relative="1" as="geometry" />
        </mxCell>
        <mxCell id="6v7LYIeFrf3vczTTwDZY-5" value="게시글" style="rounded=1;arcSize=10;whiteSpace=wrap;html=1;align=center;" parent="1" vertex="1">
          <mxGeometry x="120" y="460" width="100" height="40" as="geometry" />
        </mxCell>
        <mxCell id="6v7LYIeFrf3vczTTwDZY-20" style="edgeStyle=orthogonalEdgeStyle;rounded=0;orthogonalLoop=1;jettySize=auto;html=1;exitX=1;exitY=0;exitDx=0;exitDy=0;entryX=0.5;entryY=1;entryDx=0;entryDy=0;endArrow=none;endFill=0;" parent="1" source="6v7LYIeFrf3vczTTwDZY-6" target="6v7LYIeFrf3vczTTwDZY-2" edge="1">
          <mxGeometry relative="1" as="geometry" />
        </mxCell>
        <mxCell id="6v7LYIeFrf3vczTTwDZY-6" value="생성한다" style="shape=rhombus;perimeter=rhombusPerimeter;whiteSpace=wrap;html=1;align=center;" parent="1" vertex="1">
          <mxGeometry x="581" y="220" width="90" height="60" as="geometry" />
        </mxCell>
        <mxCell id="6v7LYIeFrf3vczTTwDZY-7" value="가입한다" style="shape=rhombus;perimeter=rhombusPerimeter;whiteSpace=wrap;html=1;align=center;" parent="1" vertex="1">
          <mxGeometry x="260" y="210" width="90" height="60" as="geometry" />
        </mxCell>
        <mxCell id="6v7LYIeFrf3vczTTwDZY-11" style="edgeStyle=orthogonalEdgeStyle;rounded=0;orthogonalLoop=1;jettySize=auto;html=1;exitX=0;exitY=1;exitDx=0;exitDy=0;entryX=0.5;entryY=0;entryDx=0;entryDy=0;endArrow=none;endFill=0;" parent="1" source="6v7LYIeFrf3vczTTwDZY-8" target="6v7LYIeFrf3vczTTwDZY-5" edge="1">
          <mxGeometry relative="1" as="geometry" />
        </mxCell>
        <mxCell id="6v7LYIeFrf3vczTTwDZY-8" value="작성한다" style="shape=rhombus;perimeter=rhombusPerimeter;whiteSpace=wrap;html=1;align=center;" parent="1" vertex="1">
          <mxGeometry x="240" y="350" width="90" height="60" as="geometry" />
        </mxCell>
        <mxCell id="6v7LYIeFrf3vczTTwDZY-14" style="edgeStyle=orthogonalEdgeStyle;rounded=0;orthogonalLoop=1;jettySize=auto;html=1;exitX=1;exitY=1;exitDx=0;exitDy=0;endArrow=none;endFill=0;" parent="1" source="6v7LYIeFrf3vczTTwDZY-9" target="6v7LYIeFrf3vczTTwDZY-4" edge="1">
          <mxGeometry relative="1" as="geometry" />
        </mxCell>
        <mxCell id="6v7LYIeFrf3vczTTwDZY-9" value="작성한다" style="shape=rhombus;perimeter=rhombusPerimeter;whiteSpace=wrap;html=1;align=center;" parent="1" vertex="1">
          <mxGeometry x="530" y="340" width="90" height="60" as="geometry" />
        </mxCell>
        <mxCell id="6v7LYIeFrf3vczTTwDZY-10" style="edgeStyle=orthogonalEdgeStyle;rounded=0;orthogonalLoop=1;jettySize=auto;html=1;exitX=0;exitY=0.5;exitDx=0;exitDy=0;endArrow=none;endFill=0;" parent="1" source="6v7LYIeFrf3vczTTwDZY-3" target="6v7LYIeFrf3vczTTwDZY-8" edge="1">
          <mxGeometry relative="1" as="geometry">
            <Array as="points">
              <mxPoint x="390" y="360" />
            </Array>
          </mxGeometry>
        </mxCell>
        <mxCell id="6v7LYIeFrf3vczTTwDZY-16" style="edgeStyle=orthogonalEdgeStyle;rounded=0;orthogonalLoop=1;jettySize=auto;html=1;exitX=1;exitY=0.5;exitDx=0;exitDy=0;entryX=0;entryY=0.5;entryDx=0;entryDy=0;endArrow=none;endFill=0;" parent="1" source="6v7LYIeFrf3vczTTwDZY-12" target="6v7LYIeFrf3vczTTwDZY-4" edge="1">
          <mxGeometry relative="1" as="geometry" />
        </mxCell>
        <mxCell id="6v7LYIeFrf3vczTTwDZY-12" value="포함한다" style="shape=rhombus;perimeter=rhombusPerimeter;whiteSpace=wrap;html=1;align=center;" parent="1" vertex="1">
          <mxGeometry x="390" y="450" width="90" height="60" as="geometry" />
        </mxCell>
        <mxCell id="6v7LYIeFrf3vczTTwDZY-18" style="edgeStyle=orthogonalEdgeStyle;rounded=0;orthogonalLoop=1;jettySize=auto;html=1;exitX=0;exitY=0;exitDx=0;exitDy=0;entryX=0.377;entryY=1.029;entryDx=0;entryDy=0;entryPerimeter=0;endArrow=none;endFill=0;" parent="1" source="6v7LYIeFrf3vczTTwDZY-7" target="6v7LYIeFrf3vczTTwDZY-1" edge="1">
          <mxGeometry relative="1" as="geometry">
            <Array as="points">
              <mxPoint x="198" y="225" />
            </Array>
          </mxGeometry>
        </mxCell>
        <mxCell id="6v7LYIeFrf3vczTTwDZY-21" value="결제" style="rounded=1;arcSize=10;whiteSpace=wrap;html=1;align=center;" parent="1" vertex="1">
          <mxGeometry x="-75" y="37" width="100" height="40" as="geometry" />
        </mxCell>
        <mxCell id="6v7LYIeFrf3vczTTwDZY-28" style="edgeStyle=orthogonalEdgeStyle;rounded=0;orthogonalLoop=1;jettySize=auto;html=1;exitX=0;exitY=0.5;exitDx=0;exitDy=0;entryX=1;entryY=0.25;entryDx=0;entryDy=0;endArrow=none;endFill=0;" parent="1" source="6v7LYIeFrf3vczTTwDZY-24" target="6v7LYIeFrf3vczTTwDZY-21" edge="1">
          <mxGeometry relative="1" as="geometry" />
        </mxCell>
        <mxCell id="6v7LYIeFrf3vczTTwDZY-24" value="결제한다" style="shape=rhombus;perimeter=rhombusPerimeter;whiteSpace=wrap;html=1;align=center;" parent="1" vertex="1">
          <mxGeometry x="165" y="17" width="90" height="60" as="geometry" />
        </mxCell>
        <mxCell id="6v7LYIeFrf3vczTTwDZY-29" value="쿠폰" style="rounded=1;arcSize=10;whiteSpace=wrap;html=1;align=center;" parent="1" vertex="1">
          <mxGeometry x="490" y="50" width="100" height="40" as="geometry" />
        </mxCell>
        <mxCell id="6v7LYIeFrf3vczTTwDZY-31" value="포인트" style="rounded=1;arcSize=10;whiteSpace=wrap;html=1;align=center;" parent="1" vertex="1">
          <mxGeometry x="323" y="50" width="100" height="40" as="geometry" />
        </mxCell>
        <mxCell id="6v7LYIeFrf3vczTTwDZY-39" style="edgeStyle=orthogonalEdgeStyle;rounded=0;orthogonalLoop=1;jettySize=auto;html=1;exitX=0.5;exitY=0;exitDx=0;exitDy=0;entryX=0.5;entryY=1;entryDx=0;entryDy=0;endArrow=none;endFill=0;" parent="1" source="6v7LYIeFrf3vczTTwDZY-34" target="6v7LYIeFrf3vczTTwDZY-31" edge="1">
          <mxGeometry relative="1" as="geometry" />
        </mxCell>
        <mxCell id="6v7LYIeFrf3vczTTwDZY-34" value="쌓는다" style="shape=rhombus;perimeter=rhombusPerimeter;whiteSpace=wrap;html=1;align=center;" parent="1" vertex="1">
          <mxGeometry x="350" y="126" width="90" height="60" as="geometry" />
        </mxCell>
        <mxCell id="6v7LYIeFrf3vczTTwDZY-40" style="edgeStyle=orthogonalEdgeStyle;rounded=0;orthogonalLoop=1;jettySize=auto;html=1;exitX=0.5;exitY=0;exitDx=0;exitDy=0;entryX=0.5;entryY=1;entryDx=0;entryDy=0;endArrow=none;endFill=0;" parent="1" source="6v7LYIeFrf3vczTTwDZY-35" target="6v7LYIeFrf3vczTTwDZY-29" edge="1">
          <mxGeometry relative="1" as="geometry" />
        </mxCell>
        <mxCell id="6v7LYIeFrf3vczTTwDZY-35" value="받는다" style="shape=rhombus;perimeter=rhombusPerimeter;whiteSpace=wrap;html=1;align=center;" parent="1" vertex="1">
          <mxGeometry x="480" y="121" width="90" height="60" as="geometry" />
        </mxCell>
        <mxCell id="6v7LYIeFrf3vczTTwDZY-36" style="edgeStyle=orthogonalEdgeStyle;rounded=0;orthogonalLoop=1;jettySize=auto;html=1;exitX=0.5;exitY=0;exitDx=0;exitDy=0;endArrow=none;endFill=0;entryX=0.5;entryY=1;entryDx=0;entryDy=0;" parent="1" source="6v7LYIeFrf3vczTTwDZY-3" target="6v7LYIeFrf3vczTTwDZY-34" edge="1">
          <mxGeometry relative="1" as="geometry">
            <mxPoint x="393" y="202" as="targetPoint" />
          </mxGeometry>
        </mxCell>
      </root>
    </mxGraphModel>
  </diagram>
</mxfile>
